<svg id="f193d792-99d8-4cc1-bcf1-61b189321e6f" data-name="Layer 1" xmlns="http://www.w3.org/2000/svg" xmlns:xlink="http://www.w3.org/1999/xlink" width="865.76" height="682.89" viewBox="0 0 865.76 682.89"><defs><clipPath id="fbc9499d-290c-43b4-881d-1987ee1d9d82"><rect id="fb0f3658-f209-457a-8e6e-d489322f65ca" data-name="SVGID" x="193.19" y="56.2" width="235.08" height="201.7" fill="none"/></clipPath></defs><g id="adb032a5-19ec-4fab-a790-f60d90409239" data-name="freepik--Window--inject-40"><polygon points="585.51 64.44 459.09 64.44 460.37 46.01 586.79 46.01 585.51 64.44" fill="#ccc"/><polygon points="585.51 90.26 459.09 90.26 460.37 71.83 586.79 71.83 585.51 90.26" fill="#ccc"/><polygon points="585.51 116.1 459.09 116.1 460.37 97.65 586.79 97.65 585.51 116.1" fill="#ccc"/><polygon points="585.51 141.92 459.09 141.92 460.37 123.47 586.79 123.47 585.51 141.92" fill="#ccc"/><polygon points="585.51 167.74 459.09 167.74 460.37 149.29 586.79 149.29 585.51 167.74" fill="#ccc"/><polygon points="585.51 193.56 459.09 193.56 460.37 175.13 586.79 175.13 585.51 193.56" fill="#ccc"/><polygon points="585.51 219.38 459.09 219.38 460.37 200.95 586.79 200.95 585.51 219.38" fill="#ccc"/><polygon points="585.51 245.22 459.09 245.22 460.37 226.77 586.79 226.77 585.51 245.22" fill="#ccc"/><polygon points="585.51 271.05 459.09 271.05 460.37 252.59 586.79 252.59 585.51 271.05" fill="#ccc"/><polygon points="585.51 296.87 459.09 296.87 460.37 278.42 586.79 278.42 585.51 296.87" fill="#ccc"/><polygon points="585.51 322.69 459.09 322.69 460.37 304.24 586.79 304.24 585.51 322.69" fill="#ccc"/><polygon points="719.21 64.44 592.76 64.44 594.04 46.01 720.48 46.01 719.21 64.44" fill="#ccc"/><polygon points="719.21 90.26 592.76 90.26 594.04 71.83 720.48 71.83 719.21 90.26" fill="#ccc"/><polygon points="719.21 116.1 592.76 116.1 594.04 97.65 720.48 97.65 719.21 116.1" fill="#ccc"/><polygon points="719.21 141.92 592.76 141.92 594.04 123.47 720.48 123.47 719.21 141.92" fill="#ccc"/><polygon points="719.21 167.74 592.76 167.74 594.04 149.29 720.48 149.29 719.21 167.74" fill="#ccc"/><polygon points="719.21 193.56 592.76 193.56 594.04 175.13 720.48 175.13 719.21 193.56" fill="#ccc"/><polygon points="719.21 219.38 592.76 219.38 594.04 200.95 720.48 200.95 719.21 219.38" fill="#ccc"/><polygon points="719.21 245.22 592.76 245.22 594.04 226.77 720.48 226.77 719.21 245.22" fill="#ccc"/><polygon points="719.21 271.05 592.76 271.05 594.04 252.59 720.48 252.59 719.21 271.05" fill="#ccc"/><polygon points="719.21 296.87 592.76 296.87 594.04 278.42 720.48 278.42 719.21 296.87" fill="#ccc"/><polygon points="719.21 322.69 592.76 322.69 594.04 304.24 720.48 304.24 719.21 322.69" fill="#ccc"/></g><g id="adf850b7-869e-45bb-9f69-189905bc0726" data-name="freepik--Window--inject-40" opacity="0.1"><polygon points="585.51 64.44 459.09 64.44 460.37 46.01 586.79 46.01 585.51 64.44"/><polygon points="585.51 90.26 459.09 90.26 460.37 71.83 586.79 71.83 585.51 90.26"/><polygon points="585.51 116.1 459.09 116.1 460.37 97.65 586.79 97.65 585.51 116.1"/><polygon points="585.51 141.92 459.09 141.92 460.37 123.47 586.79 123.47 585.51 141.92"/><polygon points="585.51 167.74 459.09 167.74 460.37 149.29 586.79 149.29 585.51 167.74"/><polygon points="585.51 193.56 459.09 193.56 460.37 175.13 586.79 175.13 585.51 193.56"/><polygon points="585.51 219.38 459.09 219.38 460.37 200.95 586.79 200.95 585.51 219.38"/><polygon points="585.51 245.22 459.09 245.22 460.37 226.77 586.79 226.77 585.51 245.22"/><polygon points="585.51 271.05 459.09 271.05 460.37 252.59 586.79 252.59 585.51 271.05"/><polygon points="585.51 296.87 459.09 296.87 460.37 278.42 586.79 278.42 585.51 296.87"/><polygon points="585.51 322.69 459.09 322.69 460.37 304.24 586.79 304.24 585.51 322.69"/><polygon points="719.21 64.44 592.76 64.44 594.04 46.01 720.48 46.01 719.21 64.44"/><polygon points="719.21 90.26 592.76 90.26 594.04 71.83 720.48 71.83 719.21 90.26"/><polygon points="719.21 116.1 592.76 116.1 594.04 97.65 720.48 97.65 719.21 116.1"/><polygon points="719.21 141.92 592.76 141.92 594.04 123.47 720.48 123.47 719.21 141.92"/><polygon points="719.21 167.74 592.76 167.74 594.04 149.29 720.48 149.29 719.21 167.74"/><polygon points="719.21 193.56 592.76 193.56 594.04 175.13 720.48 175.13 719.21 193.56"/><polygon points="719.21 219.38 592.76 219.38 594.04 200.95 720.48 200.95 719.21 219.38"/><polygon points="719.21 245.22 592.76 245.22 594.04 226.77 720.48 226.77 719.21 245.22"/><polygon points="719.21 271.05 592.76 271.05 594.04 252.59 720.48 252.59 719.21 271.05"/><polygon points="719.21 296.87 592.76 296.87 594.04 278.42 720.48 278.42 719.21 296.87"/><polygon points="719.21 322.69 592.76 322.69 594.04 304.24 720.48 304.24 719.21 322.69"/></g><rect x="180.13" y="44.99" width="261.22" height="224.11" fill="#ccc"/><rect x="193.19" y="56.2" width="235.08" height="201.7" fill="#fff"/><g clip-path="url(#fbc9499d-290c-43b4-881d-1987ee1d9d82)"><path d="M428.28,117.34c-42.28,30.08-102.83,50-173.08,81.39a289.38,289.38,0,0,0-62,37.08v22.11H428.28Z" fill="#3f3d56"/><path d="M428.28,56.2H333.94c-10.5,9-22.92,19-37.59,29.76-53.69,39.37-30.42,78.77,34,50.1,33.07-14.69,69.88-48.7,97.91-78.34Z" fill="#3f3d56"/><path d="M233.81,78.81c0-16.43-20.47-3.5-40.53,13v41.5C212.8,114.19,233.81,93.52,233.81,78.81Z" fill="#3f3d56"/><path d="M253.41,144.15a18.8,18.8,0,1,1-18.8-18.81,18.8,18.8,0,0,1,18.8,18.81Z" fill="#3f3d56"/><path d="M428.28,117.34c-42.28,30.08-102.83,50-173.08,81.39a289.38,289.38,0,0,0-62,37.08v22.11H428.28Z" fill="#fff" opacity="0.75" style="isolation:isolate"/><path d="M428.28,56.2H333.94c-10.5,9-22.92,19-37.59,29.76-53.69,39.37-30.42,78.77,34,50.1,33.07-14.69,69.88-48.7,97.91-78.34Z" fill="#fff" opacity="0.75" style="isolation:isolate"/><g opacity="0.75"><path d="M233.81,78.81c0-16.43-20.47-3.5-40.53,13v41.5C212.8,114.19,233.81,93.52,233.81,78.81Z" fill="#fff"/></g><path d="M253.41,144.15a18.8,18.8,0,1,1-18.8-18.81,18.8,18.8,0,0,1,18.8,18.81Z" fill="#fff" opacity="0.75" style="isolation:isolate"/></g><path d="M387.65,204.1A25.07,25.07,0,1,1,362.58,179h0a25.06,25.06,0,0,1,25,25.06Z" fill="#fff"/><g id="f9479a75-3a8b-49c5-9a82-9034bdd8a32f" data-name="freepik--Plants--inject-40"><path d="M741,506.93a39.36,39.36,0,0,0-8.89,18.49l-17.84,10V488.15l.35.47,28.41-20.79c3.59.56,17.38,2.13,30-4.64,14.6-7.86,25.26-34.79,25.26-34.79s-34.8-3.93-46.58,10.67c-9.56,11.83-9.89,23.3-9.66,27.2l-27.73,20.29V451.63a38.63,38.63,0,0,0,21.13-25.5c5-19.64-21.89-58.35-21.89-58.35s-28,39.84-22.46,60.05c4.77,17.1,17.51,22.53,21.34,23.79v75.71l-19.95-16.68c.45-4,.82-16.48-10.3-29-13.48-15.16-49.38-14-49.38-14s15.14,30.3,28,40.4c11.27,8.76,26.84,5.25,30.58,4.19l21,17.5v23H681.13l12.76,79.76h38.29L745,552.8H714.29V537.57l19.6-11c4.76,1.33,18.09,4.06,30.69-2.24,15.76-7.86,28.62-24.71,28.62-24.71S755.62,490.09,741,506.93Z" fill="#ccc"/><path d="M741,506.93a39.36,39.36,0,0,0-8.89,18.49l-17.84,10V488.15l.35.47,28.41-20.79c3.59.56,17.38,2.13,30-4.64,14.6-7.86,25.26-34.79,25.26-34.79s-34.8-3.93-46.58,10.67c-9.56,11.83-9.89,23.3-9.66,27.2l-27.73,20.29V451.63a38.63,38.63,0,0,0,21.13-25.5c5-19.64-21.89-58.35-21.89-58.35s-28,39.84-22.46,60.05c4.77,17.1,17.51,22.53,21.34,23.79v75.71l-19.95-16.68c.45-4,.82-16.48-10.3-29-13.48-15.16-49.38-14-49.38-14s15.14,30.3,28,40.4c11.27,8.76,26.84,5.25,30.58,4.19l21,17.5v23H681.13l12.76,79.76h38.29L745,552.8H714.29V537.57l19.6-11c4.76,1.33,18.09,4.06,30.69-2.24,15.76-7.86,28.62-24.71,28.62-24.71S755.62,490.09,741,506.93Z" fill="#ccc" opacity="0.5" style="isolation:isolate"/></g><path d="M705.64,266l-51.52.44s-3.5-.44-4.25,2.11c0,0-9,22.59-9.37,30.67s1.75,6.81-1.75,17.51-13.2,35.76-18.73,56.21c-7.44,27.47-9.38,56.63-9.86,85,0,4.55-2.8,43.77,4.29,43.77,5.88,0,60.1,7.19,60.75-3.26,2.6-41.66-4.92-82.36,9.54-122.87,5.62-15.76,12.06-32.35,16.84-48.81s5.6-33.58,8.75-50.42C712.45,264.69,705.64,266,705.64,266Z" fill="#043a3a"/><path d="M710.7,271.08c-.51-5.95-5.06-5.11-5.06-5.11l-51.52.44s-3.5-.44-4.25,2.11c0,0-9,22.59-9.37,30.67a36.13,36.13,0,0,0,.18,6.41l1.08,1.75s1.75,14.9,22.15,15.76,31.94-8.53,36.2-17.51,6-23.42,9.36-32C709.84,272.78,710.25,271.92,710.7,271.08Z" fill="#3f3d56"/><path d="M710.7,271.08c-.51-5.95-5.06-5.11-5.06-5.11l-51.52.44s-3.5-.44-4.25,2.11c0,0-9,22.59-9.37,30.67a36.13,36.13,0,0,0,.18,6.41l1.08,1.75s1.75,14.9,22.15,15.76,31.94-8.53,36.2-17.51,6-23.42,9.36-32C709.84,272.78,710.25,271.92,710.7,271.08Z" opacity="0.2"/><path d="M698.74,287.71c-3.5,12.45-1.38,15.9-4.83,37.32s-15.9,45.52-20.74,67.73S670.42,493,671.1,496.43a30.35,30.35,0,0,1,.3,5.55c2.33-.87,3.73-2.06,3.83-3.69,2.61-41.67-4.92-82.37,9.54-122.88,5.62-15.75,12.06-32.35,16.84-48.8s5.6-33.58,8.76-50.42c1.31-7-.76-9.29-2.56-10h0A92.83,92.83,0,0,0,698.74,287.71Z" fill="#3f3d56"/><path d="M698.74,287.71c-3.5,12.45-1.38,15.9-4.83,37.32s-15.9,45.52-20.74,67.73S670.42,493,671.1,496.43a30.35,30.35,0,0,1,.3,5.55c2.33-.87,3.73-2.06,3.83-3.69,2.61-41.67-4.92-82.37,9.54-122.88,5.62-15.75,12.06-32.35,16.84-48.8s5.6-33.58,8.76-50.42c1.31-7-.76-9.29-2.56-10h0A92.83,92.83,0,0,0,698.74,287.71Z" opacity="0.2"/><path d="M599.22,602.17l-.35-.28V553.78h6.92V523.37H580.23v30.41h6.9v48.93L526,622.21V627A5.53,5.53,0,0,0,537,627v-.68l51.16-6v7.33a4.83,4.83,0,0,0,9.66,0v-7.58l53.22,6.2V627a5.53,5.53,0,0,0,11.06,0v-4.83Z" fill="#043a3a"/><rect x="513.25" y="493.72" width="165.9" height="35.27" rx="7" fill="#043a3a"/><path d="M74.22,266l51.52.44s3.5-.44,4.27,2.11c0,0,9,22.59,9.37,30.67s-1.75,6.81,1.75,17.51,13.2,35.76,18.73,56.21c7.46,27.47,9.39,56.63,9.86,85,0,4.55,2.8,43.77-4.29,43.77-5.87,0-60.08,7.19-60.75-3.26-2.59-41.66,4.92-82.36-9.54-122.87-5.62-15.76-12.06-32.35-16.82-48.81s-5.6-33.58-8.75-50.42C67.5,264.69,74.22,266,74.22,266Z" fill="#043a3a"/><path d="M139.45,299.19c-.42-8.08-9.37-30.67-9.37-30.67-.77-2.55-4.27-2.11-4.27-2.11L74.29,266a4.41,4.41,0,0,0-2.2.27l0,0c-1.78.69-3.85,3-2.55,10,3.15,16.84,4,34,8.75,50.42s11.2,33.05,16.82,48.8c14.46,40.51,7,81.21,9.54,122.88.11,1.63,1.52,2.82,3.84,3.69a31.25,31.25,0,0,1,.29-5.55c.76-3.46,2.77-81.45-2.06-103.67S89.4,346.46,86,325c-.84-5.25-1.35-9.41-1.69-12.9,6,6.44,16.38,11.62,31.77,11,20.39-.86,22.14-15.76,22.14-15.76l1.09-1.75A39.22,39.22,0,0,0,139.45,299.19Z" fill="#3f3d56"/><path d="M139.45,299.19c-.42-8.08-9.37-30.67-9.37-30.67-.77-2.55-4.27-2.11-4.27-2.11L74.29,266a4.41,4.41,0,0,0-2.2.27l0,0c-1.78.69-3.85,3-2.55,10,3.15,16.84,4,34,8.75,50.42s11.2,33.05,16.82,48.8c14.46,40.51,7,81.21,9.54,122.88.11,1.63,1.52,2.82,3.84,3.69a31.25,31.25,0,0,1,.29-5.55c.76-3.46,2.77-81.45-2.06-103.67S89.4,346.46,86,325c-.84-5.25-1.35-9.41-1.69-12.9,6,6.44,16.38,11.62,31.77,11,20.39-.86,22.14-15.76,22.14-15.76l1.09-1.75A39.22,39.22,0,0,0,139.45,299.19Z" opacity="0.2"/><path d="M180.64,602.17l.35-.28V553.78h-7V523.37h25.58v30.41h-6.92v48.93l61.17,19.5V627a5.54,5.54,0,0,1-11.07,0v-.68l-51-6v7.33a4.85,4.85,0,0,1-9.68,0v-7.58l-53.34,6.2V627a5.53,5.53,0,1,1-11,.62,3.21,3.21,0,0,1,0-.62v-4.83Z" fill="#043a3a"/><rect x="100.71" y="493.7" width="165.9" height="35.27" rx="7" fill="#043a3a"/><rect x="100.71" y="493.7" width="165.9" height="35.27" rx="7" opacity="0.1"/><rect x="225.11" y="393.91" width="415.94" height="239.06" fill="#ccc"/><rect x="225.32" y="399.65" width="415.41" height="6.62" fill="#231f20" opacity="0.2"/><rect x="215.85" y="389.99" width="428.28" height="10.45" fill="#ccc"/><path d="M550.84,605.85l1.13,9.53s11.59,2.25,16.83-1.12l.75-12.53Z" fill="#f9b499"/><path d="M599.85,601.73l5,10.29s13.46.18,17-5.15l-2.06-11.5Z" fill="#f9b499"/><path d="M520.72,295.35l-16.62,18.5,12.41,12.88S520.09,303.81,520.72,295.35Z" fill="#5ec087"/><path d="M520.72,295.35l-16.62,18.5,12.41,12.88S520.09,303.81,520.72,295.35Z" opacity="0.2"/><polygon points="497.68 318.7 518.21 336.41 521.5 330.93 503.01 312.75 497.68 318.7" fill="#5ec087"/><path d="M516.09,331.87s20.51,7.05,49.16,0a30.34,30.34,0,0,1-8.2-23.77s4.66-21.08.78-34.76c0,0-8.34-42.74,5.82-88.64a33.16,33.16,0,0,1,5.41-4.17l29.4-13.7-8.15-2.35s-18.46,3.68-24.38,7.89l-5.4,7.78s-.17-8.58-.48-10.16-7.74,2.31-7.74,2.31l1.41,10.81s-12.61,16.47-18.3,32.46c0,0-9.89,21-10.47,42.54Z" fill="#ccc"/><path d="M547.36,607.87,531.38,473,516.09,331.87l28.25-3.76s26.06,139.64,29.35,221.46c0,0-.31,53.6-1.56,58.3Z" fill="#043a3a"/><path d="M541.41,405.06c2.62,27.54,10.27,62.08,14.66,80.47q2.86,12,6.91,23.62l33.28,95.9,27.27-7.52S594,487,589,470.11c0,0,7.26-113.64,6.32-132.76l-51-9.24Z" fill="#043a3a"/><path d="M541.41,405.06c2.62,27.54,10.27,62.08,14.66,80.47q2.86,12,6.91,23.62l33.28,95.9,27.27-7.52S594,487,589,470.11c0,0,7.26-113.64,6.32-132.76l-51-9.24Z" opacity="0.2"/><path d="M432.74,273.35l5.73.68s20-10.45,36.15-.68l3,17.2-23,12.47L429,293.92Z" fill="#f9b499"/><path d="M439.53,288.14s7.84-15.67,21.94-11.6l13.15-3.19,3,17.2-27.23,14.23a1.46,1.46,0,0,1-1.14.08l-18-6.51a1.42,1.42,0,0,1-.46-2.39Z" fill="#f9b499"/><polygon points="232.98 596.61 227.72 606.41 240.33 612.37 249.09 596.61 232.98 596.61" fill="#f9b499"/><path d="M301.62,604.49c-.35,1.92,0,14.88,0,14.88H317V604.49Z" fill="#f9b499"/><path d="M292.89,497.85l4.33,110h22.57l5.64-125.07s20.09-114.1,16-145.45c0,0-17.33,5.91-53.82,0Z" fill="#043a3a"/><path d="M292.89,497.85l4.33,110h22.57l5.64-125.07s20.09-114.1,16-145.45c0,0-17.33,5.91-53.82,0Z" fill="#043a3a"/><path d="M292.89,497.85l4.33,110h22.57l5.64-125.07s20.09-114.1,16-145.45c0,0-17.33,5.91-53.82,0Z" opacity="0.2"/><path d="M314.67,428.39c-5.13,25-12.61,58.14-15.24,69.67a37.38,37.38,0,0,1-2.82,8L249,603.8l-19-6.27,41.38-125.07c-18.81-74.76-13.64-130.25-13.64-130.25l2.91-12,56,6.21,5.4,37C328.67,390.87,318.41,410.08,314.67,428.39Z" fill="#043a3a"/><path d="M287.6,337.35s34.63,7.35,53.82,0c0,0-1.1-15.31-3.14-27.79l-12.85-47s-.64-21.42,1.33-33.4c0,0,8-14.4-23.66-41.13l-5.72-6.11-4.16,8.23s16.22,40.43,7.76,78.28c0,0-2,20.45-.16,37.61C300.82,306,301.85,328.56,287.6,337.35Z" fill="#ccc"/><path d="M309.2,155.92s-12.14,13.26-11.82,26c0,0-25.39-10.82-32.6-11.91l3-5.33,23.18-21.46S296,156.13,309.2,155.92Z" fill="#f9b499"/><path d="M260.07,172s-15.51,7.06-18.33,25.16c0,0-16.93,54.31-13.4,84.63,0,0,1.41,15,7.76,21.16L271.83,353l14.34-9.64-36.44-69.82L254,259.46s8.23,58.3-9.64,88.63c0,0,62.3.24,56.66-39.26,0,0-1.88-29.15,0-40.44,0,0,9.34-32.77-7.76-78.28C293.22,190.11,278.65,176.47,260.07,172Z" fill="#5ec087"/><path d="M303.1,188s25.78,20.22,24.21,37.46c0,0-4.07,24.29-1.88,37.07l13.17,48.19,1.88-35.11s.23,5.49,80.17,16.54l3.29-20-72.8-17.87-14.42-21.94s-10.5-52-31.74-55.64Z" fill="#5ec087"/><path d="M277.24,359.14s2.35,28,17.16,24.92c0,0,10.31-2.82,13.3-7.65a4.68,4.68,0,0,0-.87-5.81c-2.15-2-6.19-6.23-3.82-6.76,0,0,3.39,4.94,5.5,1.88,0,0,.81-2.83-6.42-5.88a38,38,0,0,1-5.51-2.79c-2.94-1.84-6.77-4.71-8.06-7.78Z" fill="#f9b499"/><path d="M296,633s.39-16.81,5.44-17.51a20.2,20.2,0,0,0,15.57,0l29.51,5.78a7.69,7.69,0,0,1,6.21,7.55V633Z" fill="#5ec087"/><path d="M216.6,617.85s6.3-15.59,11.28-14.45a20.21,20.21,0,0,0,14.56,5.5L268,624.74a7.69,7.69,0,0,1,3.14,9.25l-1.48,3.91Z" fill="#5ec087"/><path d="M598.46,166.83s-28.24,10.66-34.81,17.87c0,0-13.76,41.05-7.22,78.47a119.25,119.25,0,0,1,1.91,19.13c.1,7.38,0,16.46-.82,21.63a34.72,34.72,0,0,0-.29,10c1.45,11.36,9.16,30.79,45,29.67,0,0-6.27-53.6,8.46-94.35,0,0,14.11-48.58,12.54-59.56C623.22,189.71,623.22,172.16,598.46,166.83Z" fill="#5ec087"/><rect x="475.13" y="266.67" width="7.84" height="26.15" transform="translate(-46.99 103.58) rotate(-11.77)" fill="#5ec087"/><path d="M525,258.11s.69-38.08,29.72-75.29l-1.14-11s-6.48-4.08-17.45,14.42c0,0-22.08,36.15-17.15,73.4Z" fill="#5ec087"/><polygon points="534.94 277.01 525.03 321.76 531.14 332.34 538.43 324.58 544.34 274.64 534.94 277.01" fill="#5ec087"/><path d="M539.23,253.86s7.5-53.17,18-68.46v-2.82l5.14-1.17v4.23l-2.35,1.65s-12.29,51.57-11.67,62.93Z" fill="#5ec087"/><path d="M517.06,632h53.76a1.9,1.9,0,0,0,1.89-1.63c.62-4.32,1.46-16-6.84-18.86l-44,9.18a6.23,6.23,0,0,0-4.94,6.26Z" fill="#5ec087"/><path d="M602.45,632l-25.7.45s-4.64-.71-3.67-8c0,0,1-4.67,9.37-4.67a10.85,10.85,0,0,0,4.14-.79l18-7.52s9.91,2,17.29-4.6c0,0,4-.6,7.48,14.51a1.88,1.88,0,0,1-1.21,2.2L606,631.36A11.09,11.09,0,0,1,602.45,632Z" fill="#5ec087"/><path d="M501.76,322.23l-4.81,5.2s-15.78,2.07-16.43,10.77A.9.9,0,0,0,482,339l5.78-4.33a1.16,1.16,0,0,1,1.7.34h0a1.16,1.16,0,0,1-.17,1.39l-10.53,10.86a5.42,5.42,0,0,0,.16,7.69L485,360.7a5.4,5.4,0,0,0,6,1c5.36-2.54,15.32-8.52,18.11-18.85a15.51,15.51,0,0,1,2-4.64l3.33-5Z" fill="#f9b499"/><path d="M293.22,190.11l4.16-8.23c2.9-1.65-32.6-11.91-32.6-11.91s-3.53.86-4.71,2C260.07,172,285.47,182.11,293.22,190.11Z" fill="#5ec087"/><path d="M293.22,190.11l4.16-8.23c2.9-1.65-32.6-11.91-32.6-11.91s-3.53.86-4.71,2C260.07,172,285.47,182.11,293.22,190.11Z" opacity="0.2"/><path d="M303.1,188l-5.72-6.11a31.72,31.72,0,0,1,1.28-8.13,34.32,34.32,0,0,1,6.32,3Z" fill="#5ec087"/><path d="M303.1,188l-5.72-6.11a31.72,31.72,0,0,1,1.28-8.13,34.32,34.32,0,0,1,6.32,3Z" opacity="0.2"/><polygon points="276.06 362.9 292.99 349.27 287.11 342.21 269.24 354.91 276.06 362.9" fill="#5ec087"/><polygon points="276.06 362.9 292.99 349.27 287.11 342.21 269.24 354.91 276.06 362.9" opacity="0.2"/><polygon points="420.64 292.14 429.03 293.92 432.74 273.35 423.94 272.15 420.64 292.14" fill="#5ec087"/><polygon points="420.64 292.14 429.03 293.92 432.74 273.35 423.94 272.15 420.64 292.14" opacity="0.2"/><path d="M480.59,268s54.23-9.9,69.59-18.68c0,0,22.86-30,31.75-50.72a17.79,17.79,0,0,1,6.84-8.21l.77-.45c8.72-4.73,18.45,4.62,14.45,13.7-8,18.19-29.83,62-57.26,70.45l-61.64,15.52Z" fill="#5ec087"/><path d="M480.59,268s54.23-9.9,69.59-18.68c0,0,22.86-30,31.75-50.72a17.79,17.79,0,0,1,6.84-8.21l.77-.45c8.72-4.73,18.45,4.62,14.45,13.7-8,18.19-29.83,62-57.26,70.45l-61.64,15.52Z" opacity="0.2"/><path d="M590.31,145.53v18.95s-23.2,5.34-24.61,9l-5.17,6.71s.12-18.72-7-25.89l20-9.08Z" fill="#f9b499"/><path d="M305,161.36l4.22-5.44s-7.89,1.08-14.18-7.2C295,148.72,296.94,158.58,305,161.36Z" fill="#f4a48e"/><ellipse cx="307.06" cy="126.74" rx="19.95" ry="29.26" transform="matrix(1, -0.07, 0.07, 1, -8.46, 22.83)" fill="#f9b499"/><path d="M297.63,130.12s-1.37-24.78,15.83-30.63c0,0-23.4-17.21-49.21,0a34.85,34.85,0,0,0-15.49,23.06s.34,12.73-3.45,18.58c0,0-7.57,25.47,21.69,25.47l.75-2s32.76,6,32.76-8.15C300.51,156.49,297.66,136.44,297.63,130.12Z" fill="#043a3a"/><path d="M558.07,162.67l-1.93-4.74s12.59,4.32,19.59-2.66C575.73,155.27,568.48,163.77,558.07,162.67Z" fill="#f4a48e"/><ellipse cx="563.65" cy="127.99" rx="24.17" ry="31.49" fill="#f9b499"/><ellipse cx="585.77" cy="136.53" rx="9.66" ry="6.07" transform="translate(206.11 603.03) rotate(-63.98)" fill="#f9b499"/><path d="M549,103.11a2,2,0,0,1-.34,0c-1.06-.17-6.35-1.25-3.81-5.21l1.66-3.76s3.67-8.15,10.88-6.58l19.69,2.81h.1c.75.07,11.16,1.15,17,8.15a2.4,2.4,0,0,0,1.21.79c3.42.9,17.58,5.9,9.35,25.77l-.06.15c-.39,1.25-6,18.67-12.58,25.71a2.35,2.35,0,0,1-2,.73,20,20,0,0,1-6.25-1.71,2.3,2.3,0,0,1-.83-3.17l.08-.13a2.24,2.24,0,0,1,1.47-1.09c1.25-.27,3.67-1.39,6.13-5.91,0,0,4.21-6.79-1.81-11a2.29,2.29,0,0,0-2.22-.23,12,12,0,0,0-6.85,7.32,2.34,2.34,0,0,1-3,1.57c-3.27-1.08-8.29-4.15-6.12-12.64a94.24,94.24,0,0,1,6.57-17.7,2.32,2.32,0,0,0-2-3.36Z" fill="#043a3a"/></svg>